<svg id="svg1685" height="64" style="" viewBox="0 0 17 17" width="64" xmlns="http://www.w3.org/2000/svg">
    <path id="rect57" d="m-.04 0h16.96v16.96h-16.96z" style="opacity:0;stroke-width:.53"/>
    <g id="g69" style="" transform="matrix(.53 0 0 .53 -.04 0)">
        <circle id="circle59" cx="16" cy="16" r="14" style="fill:#c2352a"/>
        <path id="path61" d="m16 8a9 9 0 0 0 -9 9 9 9 0 0 0 9 9 9 9 0 0 0 9-9 9 9 0 0 0 -9-9zm0 2a7 7 0 0 1 7 7 7 7 0 0 1 -7 7 7 7 0 0 1 -7-7 7 7 0 0 1 7-7zm0 3c-1 0-1 0-1 1v6c0 1 0 1 1 1s1 0 1-1v-6c0-1 0-1-1-1z" style="opacity:.2"/>
        <path id="path63" d="m16 7a9 9 0 0 0 -9 9 9 9 0 0 0 9 9 9 9 0 0 0 9-9 9 9 0 0 0 -9-9zm0 2a7 7 0 0 1 7 7 7 7 0 0 1 -7 7 7 7 0 0 1 -7-7 7 7 0 0 1 7-7zm0 3c-1 0-1 0-1 1v6c0 1 0 1 1 1s1 0 1-1v-6c0-1 0-1-1-1z" style="fill:#ffffff"/>
        <path id="path65" d="m16 2a14 14 0 0 0 -14 14 14 14 0 0 0 0 1 14 14 0 0 1 14-14 14 14 0 0 1 14 13 14 14 0 0 0 -14-14z" style="opacity:.2;fill:#d3dae3"/>
        <path id="path67" d="m30 16a14 14 0 0 1 -14 14 14 14 0 0 1 -14-13 14 14 0 0 0 14 14 14 14 0 0 0 14-14 14 14 0 0 0 0-1z" style="opacity:.1"/>
    </g>
</svg>
