<?xml version="1.0" encoding="iso-8859-1"?>
<!-- Generator: Adobe Illustrator 19.0.0, SVG Export Plug-In . SVG Version: 6.00 Build 0)  -->
<svg version="1.1" id="Capa_1" xmlns="http://www.w3.org/2000/svg" xmlns:xlink="http://www.w3.org/1999/xlink" x="0px" y="0px"
	 viewBox="0 0 512 512" style="enable-background:new 0 0 512 512;" xml:space="preserve">
<linearGradient id="SVGID_1_" gradientUnits="userSpaceOnUse" x1="31.6147" y1="258" x2="480.3853" y2="258" gradientTransform="matrix(1 0 0 -1 0 514)">
	<stop  offset="0" style="stop-color:#fe7c02"/>
    <stop  offset="0.5" style="stop-color:#ff0027"/>
	<stop  offset="1" style="stop-color:#ff0083"/>
</linearGradient>
<path style="fill:url(#SVGID_1_);" d="M266.24,391.2c-67.492,0-122.4-54.909-122.4-122.4c0-81.607,66.393-148,148-148
	c11.046,0,20,8.954,20,20s-8.954,20-20,20c-59.552,0-108,48.449-108,108c0,45.436,36.965,82.4,82.4,82.4
	c34.143,0,61.92-27.777,61.92-61.92c0-25.108-20.428-45.536-45.536-45.536c-17.881,0-32.429,14.547-32.429,32.429
	c0,11.046-8.954,20-20,20s-20-8.954-20-20c0-39.938,32.491-72.429,72.429-72.429c47.165,0,85.536,38.371,85.536,85.536
	C368.16,345.479,322.439,391.2,266.24,391.2z M276,76V20c0-11.046-8.954-20-20-20c-11.046,0-20,8.954-20,20v56
	c0,11.046,8.954,20,20,20C267.046,96,276,87.046,276,76z M276,492v-56c0-11.046-8.954-20-20-20c-11.046,0-20,8.954-20,20v56
	c0,11.046,8.954,20,20,20C267.046,512,276,503.046,276,492z M117.436,176c5.523-9.566,2.245-21.798-7.32-27.32l-48.497-28
	c-9.564-5.524-21.798-2.247-27.32,7.32c-5.523,9.566-2.245,21.798,7.32,27.32l48.497,28C99.638,188.82,111.889,185.608,117.436,176z
	 M477.702,384c5.523-9.566,2.245-21.798-7.32-27.32l-48.497-28c-9.563-5.523-21.797-2.246-27.32,7.32s-2.245,21.798,7.32,27.32
	l48.497,28C459.904,396.82,472.155,393.608,477.702,384z M61.618,391.32l48.497-28c9.565-5.522,12.844-17.754,7.32-27.32
	c-5.522-9.566-17.755-12.844-27.32-7.32l-48.497,28c-9.565,5.522-12.844,17.754-7.32,27.32
	C39.836,393.594,52.078,396.828,61.618,391.32z M421.885,183.32l48.497-28c9.565-5.522,12.844-17.754,7.32-27.32
	c-5.522-9.566-17.755-12.844-27.32-7.32l-48.497,28c-9.565,5.522-12.844,17.754-7.32,27.32
	C400.103,185.594,412.345,188.828,421.885,183.32z"/>
<g>
</g>
<g>
</g>
<g>
</g>
<g>
</g>
<g>
</g>
<g>
</g>
<g>
</g>
<g>
</g>
<g>
</g>
<g>
</g>
<g>
</g>
<g>
</g>
<g>
</g>
<g>
</g>
<g>
</g>
</svg>
