<?xml version="1.0" encoding="UTF-8" standalone="no"?>
<svg
     xmlns:dc="http://purl.org/dc/elements/1.1/"
     xmlns:cc="http://creativecommons.org/ns#"
     xmlns:rdf="http://www.w3.org/1999/02/22-rdf-syntax-ns#"
     xmlns:svg="http://www.w3.org/2000/svg"
     xmlns="http://www.w3.org/2000/svg"
     id="svg11"
     version="1.1"
     width="512pt"
     viewBox="0 -118 512 512"
     height="512pt">
    <metadata
         id="metadata17">
        <rdf:RDF>
            <cc:Work
                 rdf:about="">
                <dc:format>image/svg+xml</dc:format>
                <dc:type
                     rdf:resource="http://purl.org/dc/dcmitype/StillImage" />
                <dc:title></dc:title>
            </cc:Work>
        </rdf:RDF>
    </metadata>
    <defs
         id="defs15" />
    <linearGradient
         y2="138.0002"
         y1="138.0002"
         x2="512"
         x1="-.0005"
         gradientUnits="userSpaceOnUse"
         id="a">
        <stop
             id="stop2"
             style="stop-color:#fe7c02"
             offset="0" />
        <stop
             id="stop4"
             style="stop-color:#ff0027"
             offset="0.5" />
        <stop
             id="stop6"
             style="stop-color:#ff0083"
             offset="1" />
    </linearGradient>
    <path
         style="fill:url(#a)"
         id="path9"
         d="m 510,130 c -40,-58 -130,-130 -250,-130 -130,0 -222,72 -257,130 -4,0 -4,10 0,20 35,50 127,130 257,130 120,0 210,-80 250,-130 0,-10 0,-20 0,-20 z m -370,80 c -40,-20 -72,-40 -95,-70 23,-30 55,-58 95,-75 -10,21 -20,45 -20,75 0,30 10,50 20,70 z m 120,30 c -60,0 -100,-50 -100,-100 0,-56 40,-100 100,-100 50,0 90,44 90,100 0,50 -40,100 -90,100 z m 110,-30 c 20,-20 20,-40 20,-70 0,-30 0,-54 -20,-75 40,17 70,45 100,75 -30,30 -60,50 -100,70 z" />
</svg>
