<svg height="512pt" viewBox="0 -118 512 512" width="512pt" xmlns="http://www.w3.org/2000/svg" xmlns:xlink="http://www.w3.org/1999/xlink"><linearGradient id="a" gradientUnits="userSpaceOnUse" x1="-.0005" x2="512" y1="138.0002" y2="138.0002">    <stop  offset="0" style="stop-color:#fe7c02"/>
    <stop  offset="0.5" style="stop-color:#ff0027"/>
    <stop  offset="1" style="stop-color:#ff0083"/></linearGradient><path d="m508.976562 127.429688c-34.667968-55.699219-126.667968-127.429688-252.976562-127.429688-125.261719 0-218.175781 71.515625-252.976562 127.429688-4.03125 6.472656-4.03125 14.671874 0 21.140624 34.667968 55.699219 126.667968 127.429688 252.976562 127.429688 125.261719 0 218.171875-71.515625 252.976562-127.429688 4.03125-6.46875 4.03125-14.667968 0-21.140624zm-369.894531 83.792968c-37.667969-17.402344-70.933593-43.910156-94.324219-73.222656 23.339844-29.246094 56.570313-55.777344 94.324219-73.222656-13.347656 21.234375-21.082031 46.339844-21.082031 73.222656s7.734375 51.988281 21.082031 73.222656zm116.917969 24.777344c-54.039062 0-98-43.964844-98-98s43.960938-98 98-98c54.035156 0 98 43.964844 98 98s-43.964844 98-98 98zm116.917969-24.777344c13.347656-21.234375 21.082031-46.339844 21.082031-73.222656s-7.734375-51.988281-21.082031-73.222656c37.667969 17.402344 70.933593 43.910156 94.320312 73.222656-23.335937 29.246094-56.566406 55.78125-94.320312 73.222656zm-83.226563-92.757812c17.550782 17.550781-4.832031 41.132812-26.652344 59.425781-3.976562 3.335937-9.773437 3.394531-13.761718.070313-23.128906-19.265626-44.441406-41.765626-26.710938-59.496094 16.46875-16.472656 33.5625 1.847656 33.5625 1.847656s17.097656-18.308594 33.5625-1.847656zm0 0" fill="url(#a)"/></svg>