<svg height="512pt" viewBox="0 0 512.00037 512" width="512pt" xmlns="http://www.w3.org/2000/svg" xmlns:xlink="http://www.w3.org/1999/xlink">
    <linearGradient id="a" gradientUnits="userSpaceOnUse" x1=".000373" x2="512.000373" y1="256.000185" y2="256.000185"> <stop  offset="0" style="stop-color:#fe7c02"/>
    <stop  offset="0.5" style="stop-color:#ff0027"/>
    <stop  offset="1" style="stop-color:#ff0083"/></linearGradient>
    <path d="m512 256c0 141.503906-114.5 256-255.96875 256-53.316406 0-104.140625-16.195312-146.863281-46.25v12.109375c0 11.042969-8.953125 20-19.996094 20-11.046875 0-20-8.957031-20-20v-54.980469c0-11.152344 9.117187-20.003906 20-20h54.972656c11.046875 0 20 8.953125 20 20 0 10.023438-7.382812 18.300782-17 19.75 27.039063 15.839844 57.242188 25.5625 88.886719 28.453125v-55.082031c0-11.046875 8.953125-20 20-20 11.042969 0 19.996094 8.953125 19.996094 20v55.078125c103.335937-9.425781 185.628906-91.71875 195.058594-195.078125h-55.074219c-11.046875 0-20-8.953125-20-20s8.953125-20 20-20h55.074219c-9.425782-103.347656-91.710938-185.652344-195.058594-195.078125v55.078125c0 11.046875-8.953125 20-19.996094 20-11.046875 0-20-8.953125-20-20v-55.078125c-105.027344 9.617187-185.832031 93.324219-195.007812 195.078125h55.023437c11.046875 0 20 8.953125 20 20s-8.953125 20-20 20h-55c2.503906 27.824219 10.132813 55.960938 22.976563 83.398438 4.683593 10.003906.371093 21.910156-9.632813 26.59375-10.003906 4.683593-21.910156.367187-26.589844-9.636719-88.683593-189.457031 47.582031-376.355469 228.230469-376.355469 141.484375 0 255.96875 114.515625 255.96875 256zm-255.96875-100c-11.046875 0-20 8.953125-20 20v80c0 11.046875 8.953125 20 20 20h80c11.042969 0 20-8.953125 20-20s-8.957031-20-20-20h-60v-60c0-11.046875-8.957031-20-20-20zm0 0" fill="url(#a)"/></svg>