<svg height="511pt" viewBox="0 0 511 511.99925" width="511pt" xmlns="http://www.w3.org/2000/svg" xmlns:xlink="http://www.w3.org/1999/xlink"><linearGradient id="a" gradientUnits="userSpaceOnUse" x1=".499693272" x2="512.3154971328" y1="256.0002042024" y2="256.0002042024">  <stop  offset="0" style="stop-color:#fe7c02"/>
    <stop  offset="0.5" style="stop-color:#ff0027"/>
    <stop  offset="1" style="stop-color:#ff0083"/></linearGradient><path d="m437.160156 74.652344c-99.972656-99.601563-261.742187-99.585938-361.667968.339844-71.007813 71.011718-92.632813 174.914062-60.40625 266.296874l.378906 1.070313c22.347656 62.488281 102.503906 80.449219 149.632812 33.320313l14.179688-14.183594c38.101562 25.050781 90.179687 21.0625 123.941406-12.699219l55.621094-55.621094c3.75-3.746093 5.859375-8.835937 5.859375-14.140625 0-5.300781-2.109375-10.390625-5.859375-14.140625l-18.441406-18.441406 54.976562-54.972656c7.8125-7.8125 7.8125-20.472657 0-28.28125-7.808594-7.8125-20.472656-7.8125-28.28125 0l-54.976562 54.976562-17.796876-17.796875 55.769532-55.769531c7.808594-7.8125 7.808594-20.472656 0-28.28125-7.8125-7.808594-20.472656-7.8125-28.28125 0l-55.769532 55.769531-18.441406-18.441406c-7.808594-7.8125-20.472656-7.8125-28.28125 0l-55.621094 55.617188c-33.621093 33.625-37.851562 85.675781-12.695312 123.941406l-14.1875 14.183594c-25.6875 25.6875-70.886719 17.28125-83.6875-18.515626l-.3125-.875c-27.089844-76.820312-9.210938-164.558593 50.960938-224.730468 84.277343-84.277344 220.6875-84.449219 305.15625-.289063 84.34375 84.03125 84.535156 221.367188.398437 305.621094-61.738281 61.828125-149.925781 77.492187-224.839844 51.070313-10.414062-3.671876-21.839843 1.792968-25.511719 12.210937-3.675781 10.414063 1.792969 21.835937 12.207032 25.507813 89.027344 31.398437 193.453125 12.570312 266.449218-60.527344 99.761719-99.902344 99.550782-262.558594-.472656-362.21875zm-245.183594 162.90625 41.480469-41.480469 82.960938 82.960937-41.480469 41.476563c-22.871094 22.875-60.085938 22.875-82.960938 0-22.871093-22.871094-22.871093-60.085937 0-82.957031zm0 0" fill="url(#a)"/></svg>