<svg height="512pt" viewBox="0 0 512 512" width="512pt" xmlns="http://www.w3.org/2000/svg" xmlns:xlink="http://www.w3.org/1999/xlink"><linearGradient id="a" gradientUnits="userSpaceOnUse" x1="0" x2="512" y1="256" y2="256">  <stop  offset="0" style="stop-color:#fe7c02"/>
    <stop  offset="0.5" style="stop-color:#ff0027"/>
    <stop  offset="1" style="stop-color:#ff0083"/></linearGradient><path d="m492 236h-27.714844l15.859375-15.855469c7.808594-7.8125 7.808594-20.476562 0-28.285156-7.8125-7.8125-20.476562-7.8125-28.285156 0l-44.144531 44.140625h-53.726563c-2.597656-12.75-7.632812-24.621094-14.589843-35.113281l50.746093-50.742188c7.808594-7.8125 7.808594-20.476562 0-28.285156-7.8125-7.8125-20.476562-7.8125-28.285156 0l-50.746094 50.742187c-10.492187-6.957031-22.363281-11.992187-35.113281-14.589843v-53.53125l43.90625-42.472657c7.9375-7.683593 8.148438-20.34375.46875-28.28125-7.679688-7.941406-20.34375-8.148437-28.277344-.46875l-16.097656 15.566407v-28.824219c0-11.046875-8.953125-20-20-20s-20 8.953125-20 20v27.714844l-15.855469-15.859375c-7.8125-7.808594-20.476562-7.808594-28.285156 0-7.8125 7.8125-7.8125 20.476562 0 28.285156l44.140625 44.144531v53.726563c-12.75 2.597656-24.621094 7.632812-35.113281 14.589843l-50.742188-50.746093c-7.8125-7.808594-20.476562-7.808594-28.285156 0-7.8125 7.8125-7.8125 20.476562 0 28.285156l50.742187 50.746094c-6.957031 10.492187-11.992187 22.363281-14.589843 35.113281h-53.53125l-42.472657-43.90625c-7.683593-7.941406-20.34375-8.148438-28.28125-.46875-7.941406 7.679688-8.148437 20.339844-.46875 28.277344l15.566407 16.097656h-28.824219c-11.046875 0-20 8.953125-20 20s8.953125 20 20 20h27.714844l-15.859375 15.855469c-7.808594 7.8125-7.808594 20.476562 0 28.285156 7.808593 7.808594 20.476562 7.8125 28.285156 0l44.144531-44.140625h53.726563c2.597656 12.75 7.632812 24.621094 14.589843 35.113281l-50.746093 50.742188c-7.808594 7.8125-7.808594 20.476562 0 28.285156 7.808593 7.808594 20.476562 7.8125 28.285156 0l50.746094-50.742187c10.492187 6.957031 22.363281 11.992187 35.113281 14.589843v53.53125l-43.90625 42.472657c-7.9375 7.683593-8.148438 20.34375-.46875 28.28125 7.679688 7.941406 20.34375 8.148437 28.277344.46875l16.097656-15.566407v28.824219c0 11.046875 8.953125 20 20 20s20-8.953125 20-20v-27.714844l15.855469 15.859375c7.808593 7.808594 20.476562 7.808594 28.285156 0 7.8125-7.8125 7.8125-20.476562 0-28.285156l-44.140625-44.144531v-53.726563c12.75-2.597656 24.621094-7.632812 35.113281-14.589843l50.742188 50.746093c7.808593 7.808594 20.476562 7.808594 28.285156 0 7.8125-7.8125 7.8125-20.476562 0-28.285156l-50.742187-50.746094c6.957031-10.492187 11.992187-22.363281 14.589843-35.113281h53.53125l42.472657 43.90625c7.679687 7.9375 20.339843 8.148438 28.28125.46875 7.9375-7.679688 8.148437-20.339844.46875-28.277344l-15.566407-16.097656h28.824219c11.046875 0 20-8.953125 20-20s-8.953125-20-20-20zm-236 80c-33.085938 0-60-26.914062-60-60 0-32.996094 26.890625-60 60-60 33.085938 0 60 26.914062 60 60s-26.914062 60-60 60zm0 0" fill="url(#a)"/></svg>