<svg id="Layer_1" style="enable-background:new 0 0 512 512" viewBox="0 0 512 512" xmlns="http://www.w3.org/2000/svg">
    <g style="fill:#afb6bb">
        <path d="m366.84 60.701c14.579 0 26.392 11.813 26.392 26.392s-11.813 26.392-26.392 26.392-26.392-11.813-26.392-26.392 11.813-26.392 26.392-26.392z" style=""/>
        <path d="m256.649 7.918c14.579 0 26.392 11.813 26.392 26.392s-11.813 26.392-26.392 26.392c-14.568 0-26.392-11.813-26.392-26.392s11.824-26.392 26.392-26.392z" style=""/>
        <path d="m155.706 60.701c14.579 0 26.392 11.813 26.392 26.392s-11.813 26.392-26.392 26.392-26.392-11.813-26.392-26.392 11.813-26.392 26.392-26.392z" style=""/>
    </g>
    <path d="m383.889 371.575c-25.579 54.927-65.568 103.793-127.894 127.229 70.403-70.403 71.247-167.852 54.082-248.452 52.699-75.47 118.467-126.311 118.467-126.311s7.221 136.224-44.655 247.534z" style="fill:#31c0d8"/>
    <path d="m202.546 247.481c-17.809 81.139-17.799 180.076 53.449 251.323-62.168-23.373-101.83-72.06-127.06-126.849-51.338-111.458-42.977-248.114-42.977-248.114s64.216 49.658 116.588 123.64z" style="fill:#31c0d8"/>
    <path d="m488.242 324.619s5.278 179.453-232.237 179.464h-.011c-237.515-.011-232.236-179.464-232.236-179.464l105.176 47.336c25.231 54.789 64.892 103.477 127.06 126.849 62.327-23.436 102.316-72.303 127.894-127.229z" style="fill:#5ad2d8"/>
    <path d="m310.077 250.352c17.165 80.6 16.321 178.049-54.082 248.452-71.247-71.247-71.258-170.185-53.449-251.323 17.809-81.181 53.449-144.553 53.449-144.553s36.494 64.871 54.082 147.424z" style="fill:#5ad2d8"/>
    <path d="m496.157 324.385-.348-11.853-96.57 43.453c21.335-53.262 30.444-109.506 34.312-149.15 4.683-48.011 2.975-81.799 2.9-83.213l-.799-15.082-11.949 9.237c-2.549 1.971-59.303 46.195-109.839 113.823-18.525-74.366-49.559-130.051-50.968-132.555l-6.902-12.268-6.9 12.269c-1.376 2.445-31.688 56.848-50.29 129.918-50.093-66.266-105.512-109.462-108.003-111.388l-11.833-9.149-.913 14.93c-.088 1.419-2.078 35.314 2.254 83.453 6.001 66.713 20.237 116.192 33.411 149.613l-97.528-43.892-.348 11.854c-.082 2.791-1.412 68.969 50.583 122.52 41.937 43.19 105.717 65.092 189.578 65.095l-.001-2.008.002-.002v2.01c83.851-.003 147.63-21.905 189.567-65.095 51.996-53.551 50.666-119.729 50.584-122.52zm-75.215-183.767c.027 39.025-4.101 141.508-44.229 227.614-22.573 48.471-53.053 84.427-90.873 107.323 19.423-27.695 32.122-59.813 37.854-95.912 6.089-38.344 4.331-81.234-5.176-127.513 37.412-52.817 81.378-93.421 102.424-111.512zm-172.865-3.669v287.958h15.835v-287.967c11.962 26.459 28.392 67.99 38.42 115.06 9.729 45.685 11.655 87.796 5.722 125.16-6.862 43.214-24.363 80.252-52.059 110.221-28.021-30.319-45.599-67.862-52.294-111.725-5.765-37.772-3.551-80.326 6.579-126.48 10.069-45.898 26.078-86.297 37.797-112.227zm-154.644 3.355c20.633 17.72 63.56 57.298 100.65 108.959-9.902 46.726-11.948 90.043-6.035 128.783 5.608 36.738 18.384 69.382 38.082 97.478-37.598-22.828-67.786-58.636-90.003-106.882-39.749-86.296-43.038-189.356-42.694-228.338zm-61.039 196.883 90.628 40.788c25.625 54.43 61.181 93.788 105.944 117.346-65.974-4.175-116.695-24.05-150.996-59.261-34.641-35.558-43.384-78.254-45.576-98.873zm401.818 98.688c-34.302 35.327-85.083 55.264-151.175 59.448 44.931-23.617 80.757-63.098 106.745-117.715l89.854-40.435c-2.143 20.541-10.799 63.041-45.424 98.702z" style=""/>
    <path d="m256.649 68.619c18.918 0 34.309-15.392 34.309-34.309s-15.39-34.31-34.309-34.31-34.309 15.392-34.309 34.309 15.392 34.31 34.309 34.31zm0-52.784c10.186 0 18.474 8.288 18.474 18.474s-8.288 18.474-18.474 18.474-18.474-8.288-18.474-18.474 8.288-18.474 18.474-18.474z" style=""/>
    <path d="m366.84 121.402c18.918 0 34.309-15.392 34.309-34.309s-15.392-34.309-34.309-34.309-34.309 15.392-34.309 34.309 15.391 34.309 34.309 34.309zm0-52.783c10.186 0 18.474 8.288 18.474 18.474s-8.288 18.474-18.474 18.474-18.474-8.288-18.474-18.474 8.288-18.474 18.474-18.474z" style=""/>
    <path d="m155.706 121.402c18.918 0 34.309-15.392 34.309-34.309s-15.392-34.309-34.309-34.309-34.309 15.392-34.309 34.309 15.391 34.309 34.309 34.309zm0-52.783c10.186 0 18.474 8.288 18.474 18.474s-8.288 18.474-18.474 18.474-18.474-8.288-18.474-18.474 8.288-18.474 18.474-18.474z" style=""/>
</svg>
