<svg id="Layer_1" style="enable-background:new 0 0 512 512" viewBox="0 0 512 512" xmlns="http://www.w3.org/2000/svg">
    <path d="m318.694 141.061c14.43 0 26.122 11.692 26.122 26.122s-11.692 26.122-26.122 26.122-26.122-11.692-26.122-26.122 11.692-26.122 26.122-26.122z" style="fill:#31c0d8"/>
    <path d="m193.306 141.061c14.43 0 26.122 11.692 26.122 26.122s-11.692 26.122-26.122 26.122-26.122-11.692-26.122-26.122 11.692-26.122 26.122-26.122z" style="fill:#31c0d8"/>
    <g style="fill:#ffd248">
        <path d="m256 265.362c51.158 13.782 88.816 60.51 88.816 116.025 0 66.361-53.802 120.163-120.163 120.163-20.814 0-40.396-5.308-57.469-14.618 37.345-20.386 62.694-59.998 62.694-105.545s-25.349-85.159-62.694-105.545c17.074-9.31 36.655-14.618 57.469-14.618 10.846 0 21.358 1.432 31.347 4.138z" style=""/>
        <path d="m478.48 193.902-25.579 24.931 6.039 35.203-31.619-16.614-31.618 16.614 6.039-35.203-25.579-24.931 35.349-5.141 15.809-32.026 15.81 32.026z" style=""/>
        <path d="m135.837 193.902-25.579 24.931 6.039 35.203-31.618-16.614-31.619 16.614 6.039-35.203-25.579-24.931 35.349-5.141 15.81-32.026 15.809 32.026z" style=""/>
    </g>
    <path d="m47.02 10.449h417.959v67.918h-417.959z" style="fill:#8b9296"/>
    <path d="m472.816 86.204v-67.918h39.184v-15.674h-512v15.673h39.184v67.918h37.658v68.702l-13.176 26.693-46.985 6.833 33.999 33.139-8.028 46.788 42.028-22.083 42.027 22.083-8.027-46.788 33.999-33.138-46.985-6.833-13.178-26.693v-68.702h92.954v47.943c-14.958 3.548-26.122 17.009-26.122 33.037 0 18.725 15.235 33.959 33.959 33.959s33.959-15.235 33.959-33.959c0-16.028-11.165-29.488-26.122-33.037v-47.943h47.02v169.358c-7.708-1.434-15.577-2.174-23.51-2.174-21.366 0-42.536 5.385-61.222 15.575l-12.611 6.876 12.608 6.882c36.153 19.735 58.613 57.543 58.613 98.667s-22.459 78.932-58.612 98.667l-12.608 6.882 12.611 6.876c18.686 10.19 39.856 15.575 61.222 15.575 70.58 0 128-57.42 128-128 0-55.737-36.233-105.003-88.816-121.871v-173.313h47.02v47.943c-14.958 3.548-26.122 17.009-26.122 33.037 0 18.725 15.234 33.959 33.959 33.959 18.726 0 33.959-15.235 33.959-33.959 0-16.028-11.165-29.488-26.122-33.037v-47.943h92.954v68.702l-13.176 26.693-46.985 6.834 33.999 33.138-8.028 46.788 42.027-22.083 42.027 22.083-8.027-46.787 33.998-33.138-46.985-6.833-13.176-26.693v-68.704zm-353.819 113.168-17.159 16.725 4.052 23.617-21.211-11.144-21.21 11.145 4.052-23.617-17.159-16.726 23.713-3.449 10.605-21.484 10.605 21.484zm92.595-32.188c0 10.082-8.203 18.286-18.286 18.286-10.082 0-18.286-8.203-18.286-18.286 0-10.082 8.203-18.286 18.286-18.286 10.082 0 18.286 8.203 18.286 18.286zm125.388 214.204c0 61.937-50.39 112.327-112.327 112.327-14.079 0-28.06-2.663-41.089-7.774 33.727-23.838 54.15-62.686 54.15-104.552s-20.423-80.714-54.15-104.552c13.03-5.111 27.01-7.774 41.089-7.774 9.974 0 19.83 1.301 29.308 3.868 48.88 13.166 83.019 57.767 83.019 108.457zm0-214.204c0 10.082-8.204 18.286-18.286 18.286s-18.286-8.203-18.286-18.286c0-10.082 8.204-18.286 18.286-18.286s18.286 8.203 18.286 18.286zm124.66 32.188-17.159 16.725 4.051 23.618-21.21-11.145-21.21 11.145 4.052-23.617-17.16-16.726 23.713-3.448 10.606-21.484 10.605 21.484zm-406.783-144.515h331.755v-15.673h-331.755v-20.898h402.286v52.245h-402.286z" style=""/>
    <path d="m407.51 39.184h26.122v15.673h-26.122z" style=""/>
</svg>
