<svg id="Layer_1" style="enable-background:new 0 0 512 512" viewBox="0 0 512 512" xmlns="http://www.w3.org/2000/svg">
    <path d="m213.387 98.542c76.49 0 138.492 62.002 138.492 138.492s-62.002 138.492-138.492 138.492c-18.878 0-36.86-3.803-53.266-10.653 50.038-20.87 85.226-70.237 85.226-127.839s-35.188-106.969-85.226-127.839c16.406-6.85 34.389-10.653 53.266-10.653z" style="fill:#ffd248"/>
    <path d="m256 7.99c126.496 0 229.044 102.548 229.044 229.044s-102.548 229.044-229.044 229.044c-38.554 0-74.828-9.631-106.713-26.452l-53.085 53.085v-91.756c-42.666-41.601-69.246-99.618-69.246-163.921 0-126.496 102.548-229.044 229.044-229.044zm95.879 229.044c0-76.49-62.002-138.492-138.492-138.492-18.878 0-36.86 3.803-53.266 10.653 50.038 20.87 85.226 70.237 85.226 127.839s-35.188 106.969-85.226 127.839c16.406 6.85 34.389 10.653 53.266 10.653 76.49 0 138.492-62.002 138.492-138.492z" style="fill:#546a79"/>
    <path d="m88.212 512v-107.709c-44.684-44.786-69.246-104.046-69.246-167.257 0-63.314 24.656-122.838 69.426-167.608s104.295-69.426 167.608-69.426 122.838 24.656 167.608 69.426 69.426 104.295 69.426 167.608-24.656 122.838-69.426 167.608-104.294 69.426-167.608 69.426c-36.337 0-72.57-8.518-105.175-24.681zm167.788-496.02c-121.89 0-221.054 99.164-221.054 221.054 0 59.994 23.735 116.178 66.834 158.2l2.412 2.352v75.836l43.612-43.612 5.212 2.75c32.109 16.94 66.758 25.528 102.985 25.528 121.89 0 221.054-99.164 221.054-221.054s-99.165-221.054-221.055-221.054z" style=""/>
    <path d="m213.387 383.516c-19.477 0-38.435-3.791-56.345-11.27l-17.668-7.377 17.67-7.37c48.787-20.348 80.311-67.633 80.311-120.464s-31.524-100.117-80.311-120.464l-17.67-7.37 17.668-7.377c17.911-7.479 36.868-11.27 56.345-11.27 80.771 0 146.482 65.711 146.482 146.482s-65.711 146.48-146.482 146.48zm-32.498-20.073c10.563 2.721 21.434 4.093 32.498 4.093 71.959 0 130.502-58.543 130.502-130.502s-58.543-130.502-130.502-130.502c-11.063 0-21.936 1.372-32.498 4.093 44.566 26.032 72.447 73.768 72.447 126.409s-27.881 100.376-72.447 126.409z" style=""/>
    <path d="m74.892 234.371h21.306v15.98h-21.306z" style=""/>
    <path d="m149.465 181.105h21.306v15.98h-21.306z" style=""/>
    <path d="m170.771 255.677h21.306v15.98h-21.306z" style=""/>
    <path d="m96.199 330.25h21.306v15.98h-21.306z" style=""/>
    <path d="m96.199 127.839h21.306v15.98h-21.306z" style=""/>
    <path d="m224.037 42.613h21.306v15.98h-21.306z" style=""/>
    <path d="m309.263 74.573h21.306v15.98h-21.306z" style=""/>
    <path d="m426.448 191.758h21.306v15.98h-21.306z" style=""/>
    <path d="m373.182 127.839h21.306v15.98h-21.306z" style=""/>
    <path d="m351.876 340.903h21.306v15.98h-21.306z" style=""/>
    <path d="m309.263 394.169h21.306v15.98h-21.306z" style=""/>
    <path d="m245.344 415.475h21.306v15.98h-21.306z" style=""/>
    <path d="m181.424 404.822h21.306v15.98h-21.306z" style=""/>
    <path d="m405.142 298.29h21.306v15.98h-21.306z" style=""/>
    <path d="m383.835 245.024h21.306v15.98h-21.306z" style=""/>
</svg>
