<svg id="Layer_1" style="enable-background:new 0 0 512 512" viewBox="0 0 512 512" xmlns="http://www.w3.org/2000/svg">
    <circle cx="333.075" cy="156.903" r="33.032" style="fill:#e7eced"/>
    <circle cx="178.925" cy="156.903" r="33.032" style="fill:#e7eced"/>
    <path d="m333.075 85.333c39.529 0 71.57 32.041 71.57 71.57s-32.041 71.57-71.57 71.57-71.57-32.041-71.57-71.57 32.042-71.57 71.57-71.57zm33.033 71.57c0-18.245-14.787-33.032-33.032-33.032s-33.032 14.787-33.032 33.032 14.787 33.032 33.032 33.032c18.244 0 33.032-14.787 33.032-33.032z" style="fill:#704324"/>
    <path d="m178.925 85.333c39.529 0 71.57 32.041 71.57 71.57s-32.041 71.57-71.57 71.57-71.57-32.041-71.57-71.57 32.041-71.57 71.57-71.57zm33.032 71.57c0-18.245-14.787-33.032-33.032-33.032s-33.032 14.787-33.032 33.032 14.787 33.032 33.032 33.032 33.032-14.787 33.032-33.032z" style="fill:#704324"/>
    <path d="m256 366.108-44.043-77.076 44.043-60.559 44.043 60.559z" style="fill:#afb6bb"/>
    <path d="m437.677 250.495s66.065 16.516 66.065 110.108l-33.032 121.117h-429.42l-33.032-121.118c0-93.591 66.065-110.108 66.065-110.108v-176.171c0-24.323 19.72-44.043 44.043-44.043h275.269c24.323 0 44.043 19.72 44.043 44.043v176.172zm-33.032-93.592c0-39.529-32.041-71.57-71.57-71.57s-71.57 32.041-71.57 71.57 32.041 71.57 71.57 71.57 71.57-32.041 71.57-71.57zm-104.602 132.129-44.043-60.559-44.043 60.559 44.043 77.076zm-49.548-132.129c0-39.529-32.041-71.57-71.57-71.57s-71.57 32.041-71.57 71.57 32.041 71.57 71.57 71.57 71.57-32.041 71.57-71.57z" style="fill:#a26234"/>
    <path d="m256 177.656c9.16 33.985 40.236 59.075 77.075 59.075 44.018 0 79.828-35.81 79.828-79.828s-35.81-79.828-79.828-79.828c-36.84 0-67.915 25.09-77.075 59.075-9.161-33.985-40.235-59.075-77.075-59.075-44.018 0-79.828 35.81-79.828 79.828s35.81 79.828 79.828 79.828c36.84 0 67.914-25.09 77.075-59.075zm77.075-84.065c34.911 0 63.312 28.401 63.312 63.312s-28.401 63.312-63.312 63.312-63.312-28.401-63.312-63.312 28.402-63.312 63.312-63.312zm-154.15 126.624c-34.911 0-63.312-28.401-63.312-63.312s28.401-63.312 63.312-63.312 63.312 28.401 63.312 63.312-28.402 63.312-63.312 63.312z" style=""/>
    <path d="m256 214.433-53.862 74.061 53.862 94.259 53.862-94.259zm0 28.081 34.224 47.058-25.966 45.439v-51.484h-16.516v51.484l-25.966-45.44z" style=""/>
    <path d="m178.925 115.613c-22.768 0-41.29 18.522-41.29 41.29s18.522 41.29 41.29 41.29 41.29-18.522 41.29-41.29-18.522-41.29-41.29-41.29zm0 66.064c-13.661 0-24.774-11.113-24.774-24.774s11.113-24.774 24.774-24.774 24.774 11.113 24.774 24.774-11.113 24.774-24.774 24.774z" style=""/>
    <path d="m333.075 198.194c22.768 0 41.29-18.522 41.29-41.29s-18.522-41.29-41.29-41.29-41.29 18.522-41.29 41.29 18.522 41.29 41.29 41.29zm0-66.065c13.66 0 24.774 11.113 24.774 24.774s-11.114 24.774-24.774 24.774-24.774-11.113-24.774-24.774 11.114-24.774 24.774-24.774z" style=""/>
    <path d="m476.424 264.489c-11.721-11.233-23.524-17.11-30.489-19.881v-170.285c0-28.838-23.463-52.301-52.301-52.301h-275.268c-28.838 0-52.301 23.463-52.301 52.301v170.286c-6.963 2.773-18.767 8.649-30.489 19.881-16.229 15.553-35.576 44.853-35.576 96.112v1.105l34.982 128.271h442.034l34.984-128.27v-1.105c0-51.26-19.346-80.56-35.576-96.114zm-12.021 208.973h-416.806l-31.078-113.954c.201-35.549 10.243-63.296 29.855-82.484 7.047-6.894 14.159-11.415 19.691-14.266v174.919h16.516v-19.269h316.559v-16.516h-316.559v-38.538h134.882v-16.516h-134.882v-272.515c0-19.731 16.054-35.785 35.785-35.785h275.269c19.732 0 35.785 16.054 35.785 35.785v272.516h-134.882v16.516h134.882v74.323h16.516v-174.927c16.997 8.807 49.174 33.786 49.545 96.758z" style=""/>
    <path d="m101.849 308.301h22.022v16.516h-22.022z" style=""/>
    <path d="m134.882 308.301h22.022v16.516h-22.022z" style=""/>
    <path d="m134.882 275.269h22.022v16.516h-22.022z" style=""/>
    <path d="m101.849 275.269h22.022v16.516h-22.022z" style=""/>
    <path d="m101.849 242.237h22.022v16.516h-22.022z" style=""/>
    <path d="m388.129 242.237h22.022v16.516h-22.022z" style=""/>
    <path d="m388.129 275.269h22.022v16.516h-22.022z" style=""/>
    <path d="m388.129 308.301h22.022v16.516h-22.022z" style=""/>
    <path d="m355.097 308.301h22.022v16.516h-22.022z" style=""/>
    <path d="m355.097 275.269h22.022v16.516h-22.022z" style=""/>
</svg>
