<svg id="svg1685" height="64" style="" viewBox="0 0 17 17" width="64" xmlns="http://www.w3.org/2000/svg">
    <path id="rect102" d="m0 0h16.96v16.96h-16.96z" style="opacity:0;stroke-width:.53"/>
    <g id="g114" style="" transform="scale(.53)">
        <circle id="circle104" cx="16" cy="16" r="14" style="fill:#41a5c7"/>
        <path id="path106" d="m25 17a9 9 0 0 0 -9-9 9 9 0 0 0 -9 9 9 9 0 0 0 9 9 9 9 0 0 0 9-9zm-2 0a7 7 0 0 1 -7 7 7 7 0 0 1 -7-7 7 7 0 0 1 7-7 7 7 0 0 1 7 7zm-3 0c0-1 0-1-1-1h-6c-1 0-1 0-1 1s0 1 1 1h6c1 0 1 0 1-1z" style="opacity:.2"/>
        <path id="path108" d="m25 16a9 9 0 0 0 -9-9 9 9 0 0 0 -9 9 9 9 0 0 0 9 9 9 9 0 0 0 9-9zm-2 0a7 7 0 0 1 -7 7 7 7 0 0 1 -7-7 7 7 0 0 1 7-7 7 7 0 0 1 7 7zm-3 0c0-1 0-1-1-1h-6c-1 0-1 0-1 1s0 1 1 1h6c1 0 1 0 1-1z" style="fill:#ffffff"/>
        <path id="path110" d="m16 2a14 14 0 0 0 -14 14 14 14 0 0 0 0 1 14 14 0 0 1 14-14 14 14 0 0 1 14 13 14 14 0 0 0 -14-14z" style="opacity:.2;fill:#d3dae3"/>
        <path id="path112" d="m30 16a14 14 0 0 1 -14 14 14 14 0 0 1 -14-13 14 14 0 0 0 14 14 14 14 0 0 0 14-14 14 14 0 0 0 0-1z" style="opacity:.1"/>
    </g>
</svg>
