<svg id="svg1685" height="64" style="" viewBox="0 0 17 17" width="64" xmlns="http://www.w3.org/2000/svg">
    <path id="rect87" d="m-.02 0h16.96v16.96h-16.96z" style="opacity:0;stroke-width:.53"/>
    <g id="g99" style="" transform="matrix(.53 0 0 .53 -.02 0)">
        <circle id="circle89" cx="16" cy="16" r="14" style="fill:#36bb94"/>
        <path id="path91" d="m13 9c-1 0-1 .4-1 .9v11.1h-3l4 4 4-4h-3v-11.1c0-.5 0-.9-1-.9zm6 0-4 4h3v11c0 1 0 1 1 1s1 0 1-1v-11h3z" style="opacity:.2;fill-rule:evenodd"/>
        <path id="path93" d="m13 8c-1 0-1 .4-1 .9v11.1h-3l4 4 4-4h-3v-11.1c0-.5 0-.9-1-.9zm6 0-4 4h3v11c0 1 0 1 1 1s1 0 1-1v-11h3z" style="fill:#ffffff;fill-rule:evenodd"/>
        <path id="path95" d="m16 2a14 14 0 0 0 -14 14 14 14 0 0 0 0 1 14 14 0 0 1 14-14 14 14 0 0 1 14 13 14 14 0 0 0 -14-14z" style="opacity:.2;fill:#d3dae3"/>
        <path id="path97" d="m30 16a14 14 0 0 1 -14 14 14 14 0 0 1 -14-13 14 14 0 0 0 14 14 14 14 0 0 0 14-14 14 14 0 0 0 0-1z" style="opacity:.1"/>
    </g>
</svg>
